# xmcd
#
# Track frame offsets:
#	150
#	21785
#	47912
#	72475
#	100062
#	120517
#	145677
#	169862
#	191782
#	211442
#
# Disc length: 3100 seconds
#
# Revision: 4284612575
# Processed by: cddbd v1.5.2PL0 Copyright (c) Steve Scherf et al.
# Submitted via: EZCDAudioConverter 8.0.2.1
#
DISCID=900c1a0a
DTITLE=Various Artist - Giáng Sinh Kỷ Niệm
DYEAR=1990
DGENRE=Christmas Music
TTITLE0=Elvis Phương - Bài thánh ca buồn
TTITLE1=Lệ Hằng - Mùa sao sáng
TTITLE2=Vũ Khanh - Hai mùa Noel
TTITLE3=Hằng Nga - Nửa đêm khấn hứa
TTITLE4=Elvis Phương - Tình người ngoại đạo
TTITLE5=Lệ Hằng - Bóng nhỏ giáo đường
TTITLE6=Vũ Khanh - Hai mùa hoa tuyết
TTITLE7=Như Mai - Sao đêm
TTITLE8=Elvis Phương - Giáng sinh kỷ niệm
TTITLE9=Mai Vi - Một trời sao sáng
EXTD=
EXTT0=
EXTT1=
EXTT2=
EXTT3=
EXTT4=
EXTT5=
EXTT6=
EXTT7=
EXTT8=
EXTT9=
PLAYORDER=
